<?xml version="1.0" encoding="UTF-8"?>
<!DOCTYPE svg PUBLIC "-//W3C//DTD SVG 1.1//EN" "http://www.w3.org/Graphics/SVG/1.1/DTD/svg11.dtd">
<svg xmlns="http://www.w3.org/2000/svg" version="1.1" width="316px" height="316px" style="shape-rendering:geometricPrecision; text-rendering:geometricPrecision; image-rendering:optimizeQuality; fill-rule:evenodd; clip-rule:evenodd" xmlns:xlink="http://www.w3.org/1999/xlink">
<g><path style="opacity:0.012" fill="#dedede" d="M 62.5,0.5 C 62.5,0.166667 62.5,-0.166667 62.5,-0.5C 64.1667,-0.5 65.8333,-0.5 67.5,-0.5C 66.0813,0.451145 64.4147,0.784479 62.5,0.5 Z"/></g>
<g><path style="opacity:0.016" fill="#b7b7b7" d="M 247.5,-0.5 C 249.167,-0.5 250.833,-0.5 252.5,-0.5C 252.5,-0.166667 252.5,0.166667 252.5,0.5C 250.585,0.784479 248.919,0.451145 247.5,-0.5 Z"/></g>
<g><path style="opacity:0.008" fill="#eeeeee" d="M 62.5,0.5 C 61.7494,1.57346 60.7494,1.74012 59.5,1C 60.448,0.517215 61.448,0.350549 62.5,0.5 Z"/></g>
<g><path style="opacity:0.008" fill="#eeeeee" d="M 252.5,0.5 C 253.552,0.350549 254.552,0.517215 255.5,1C 254.251,1.74012 253.251,1.57346 252.5,0.5 Z"/></g>
<g><path style="opacity:0.012" fill="#c5c5c5" d="M 258.5,3.5 C 258.897,2.47498 259.563,2.30831 260.5,3C 259.906,3.46434 259.239,3.63101 258.5,3.5 Z"/></g>
<g><path style="opacity:0.016" fill="#d3d3d3" d="M 51.5,4.5 C 51.8966,3.47498 52.5632,3.30831 53.5,4C 52.9056,4.46434 52.2389,4.63101 51.5,4.5 Z"/></g>
<g><path style="opacity:0.004" fill="#e9e9e9" d="M 261.5,4.5 C 261.897,3.47498 262.563,3.30831 263.5,4C 262.906,4.46434 262.239,4.63101 261.5,4.5 Z"/></g>
<g><path style="opacity:0.005" fill="#dedede" d="M 28.5,20.5 C 27.8333,20.5 27.5,20.8333 27.5,21.5C 26.8333,21.5 26.5,21.8333 26.5,22.5C 25.8333,22.5 25.5,22.8333 25.5,23.5C 24.8333,23.5 24.5,23.8333 24.5,24.5C 23.8333,24.5 23.5,24.8333 23.5,25.5C 22.8333,25.5 22.5,25.8333 22.5,26.5C 21.8333,26.5 21.5,26.8333 21.5,27.5C 20.8333,27.5 20.5,27.8333 20.5,28.5C 19.475,28.1034 19.3083,27.4368 20,26.5C 22.1667,24.3333 24.3333,22.1667 26.5,20C 27.4368,19.3083 28.1034,19.475 28.5,20.5 Z"/></g>
<g><path style="opacity:0.005" fill="#d0d0d0" d="M 286.5,20.5 C 286.897,19.475 287.563,19.3083 288.5,20C 290.667,22.1667 292.833,24.3333 295,26.5C 295.692,27.4368 295.525,28.1034 294.5,28.5C 294.5,27.8333 294.167,27.5 293.5,27.5C 293.5,26.8333 293.167,26.5 292.5,26.5C 292.5,25.8333 292.167,25.5 291.5,25.5C 291.5,24.8333 291.167,24.5 290.5,24.5C 290.5,23.8333 290.167,23.5 289.5,23.5C 289.5,22.8333 289.167,22.5 288.5,22.5C 288.5,21.8333 288.167,21.5 287.5,21.5C 287.5,20.8333 287.167,20.5 286.5,20.5 Z"/></g>
<g><path style="opacity:0.999" fill="#d6d6d6" d="M 76.5,-0.5 C 130.5,-0.5 184.5,-0.5 238.5,-0.5C 245.069,0.680441 251.736,2.01377 258.5,3.5C 268.764,7.63189 278.097,13.2986 286.5,20.5C 287.167,20.5 287.5,20.8333 287.5,21.5C 288.167,21.5 288.5,21.8333 288.5,22.5C 289.167,22.5 289.5,22.8333 289.5,23.5C 290.167,23.5 290.5,23.8333 290.5,24.5C 291.167,24.5 291.5,24.8333 291.5,25.5C 292.167,25.5 292.5,25.8333 292.5,26.5C 293.167,26.5 293.5,26.8333 293.5,27.5C 294.167,27.5 294.5,27.8333 294.5,28.5C 295.892,30.9237 297.725,32.2571 300,32.5C 304.727,38.7831 308.56,45.6164 311.5,53C 310.881,56.2093 311.381,59.3759 313,62.5C 313.333,61.5 313.667,60.5 314,59.5C 314.232,60.7375 314.732,61.7375 315.5,62.5C 315.5,64.1667 315.5,65.8333 315.5,67.5C 314.71,66.3915 314.21,65.0581 314,63.5C 313.774,68.0221 314.274,72.3555 315.5,76.5C 315.5,130.5 315.5,184.5 315.5,238.5C 314.274,242.645 313.774,246.978 314,251.5C 314.21,249.942 314.71,248.609 315.5,247.5C 315.5,249.167 315.5,250.833 315.5,252.5C 314.833,253.5 314.167,254.5 313.5,255.5C 313.167,251.5 312.833,251.5 312.5,255.5C 311.596,256.209 311.263,257.209 311.5,258.5C 310.167,259.167 310.167,259.833 311.5,260.5C 308.863,269.776 304.197,277.776 297.5,284.5C 297.167,283.167 296.833,283.167 296.5,284.5C 295.833,284.5 295.5,284.833 295.5,285.5C 294.833,285.5 294.5,285.833 294.5,286.5C 293.833,286.5 293.5,286.833 293.5,287.5C 292.833,287.5 292.5,287.833 292.5,288.5C 291.833,288.5 291.5,288.833 291.5,289.5C 290.833,289.5 290.5,289.833 290.5,290.5C 289.833,290.5 289.5,290.833 289.5,291.5C 288.833,291.5 288.5,291.833 288.5,292.5C 287.833,292.5 287.5,292.833 287.5,293.5C 286.833,293.5 286.5,293.833 286.5,294.5C 285.833,294.5 285.5,294.833 285.5,295.5C 284.833,295.5 284.5,295.833 284.5,296.5C 283.833,296.5 283.5,296.833 283.5,297.5C 282.508,297.328 281.842,297.662 281.5,298.5C 280.833,298.5 280.5,298.833 280.5,299.5C 279.833,299.5 279.5,299.833 279.5,300.5C 278.508,300.328 277.842,300.662 277.5,301.5C 276.833,301.5 276.5,301.833 276.5,302.5C 275.508,302.328 274.842,302.662 274.5,303.5C 273.833,303.5 273.5,303.833 273.5,304.5C 272.508,304.328 271.842,304.662 271.5,305.5C 270.508,305.328 269.842,305.662 269.5,306.5C 268.508,306.328 267.842,306.662 267.5,307.5C 266.508,307.328 265.842,307.662 265.5,308.5C 264.508,308.328 263.842,308.662 263.5,309.5C 261.447,309.402 259.78,310.069 258.5,311.5C 257.209,311.263 256.209,311.596 255.5,312.5C 249.685,313.399 244.018,314.399 238.5,315.5C 184.5,315.5 130.5,315.5 76.5,315.5C 70.982,314.399 65.3153,313.399 59.5,312.5C 57.1098,310.98 54.4432,309.98 51.5,309.5C 43.3578,305.26 35.6912,300.26 28.5,294.5C 28.5,293.833 28.1667,293.5 27.5,293.5C 27.5,292.833 27.1667,292.5 26.5,292.5C 26.5,291.833 26.1667,291.5 25.5,291.5C 25.5,290.833 25.1667,290.5 24.5,290.5C 24.5,289.833 24.1667,289.5 23.5,289.5C 23.5,288.833 23.1667,288.5 22.5,288.5C 22.5,287.833 22.1667,287.5 21.5,287.5C 21.5,286.833 21.1667,286.5 20.5,286.5C 19.1082,284.076 17.2748,282.743 15,282.5C 11.5815,277.332 8.41481,271.998 5.5,266.5C 6.66135,264.776 6.49468,263.11 5,261.5C 3.91253,263.932 3.41253,263.598 3.5,260.5C 4.83333,259.833 4.83333,259.167 3.5,258.5C 3.73731,257.209 3.40397,256.209 2.5,255.5C 2.16667,251.5 1.83333,251.5 1.5,255.5C 0.833333,254.5 0.166667,253.5 -0.5,252.5C -0.5,250.833 -0.5,249.167 -0.5,247.5C 0.28997,248.609 0.78997,249.942 1,251.5C 1.27938,247.3 0.77938,243.3 -0.5,239.5C -0.5,184.833 -0.5,130.167 -0.5,75.5C 0.77938,71.6995 1.27938,67.6995 1,63.5C 0.78997,65.0581 0.28997,66.3915 -0.5,67.5C -0.5,65.8333 -0.5,64.1667 -0.5,62.5C 0.26791,61.7375 0.76791,60.7375 1,59.5C 1.33333,60.5 1.66667,61.5 2,62.5C 3.78033,58.8888 4.447,55.2221 4,51.5C 4.9836,53.7947 5.81694,53.4614 6.5,50.5C 6.16667,49.8333 5.83333,49.1667 5.5,48.5C 8.41481,43.0016 11.5815,37.6682 15,32.5C 17.2748,32.2571 19.1082,30.9237 20.5,28.5C 21.1667,28.5 21.5,28.1667 21.5,27.5C 22.1667,27.5 22.5,27.1667 22.5,26.5C 23.1667,26.5 23.5,26.1667 23.5,25.5C 24.1667,25.5 24.5,25.1667 24.5,24.5C 25.1667,24.5 25.5,24.1667 25.5,23.5C 26.1667,23.5 26.5,23.1667 26.5,22.5C 27.1667,22.5 27.5,22.1667 27.5,21.5C 28.1667,21.5 28.5,21.1667 28.5,20.5C 42.388,8.5534 58.388,1.5534 76.5,-0.5 Z"/></g>
<g><path style="opacity:1" fill="#dfdfe0" d="M 12.5,46.5 C 52.7356,47.1722 93.069,47.8389 133.5,48.5C 117.802,56.0113 101.802,63.0113 85.5,69.5C 58.7485,70.4431 31.7485,70.7765 4.5,70.5C 4.82711,63.6803 6.49378,57.1803 9.5,51C 9.01087,49.8615 8.67754,48.6948 8.5,47.5C 9.83333,47.1667 11.1667,46.8333 12.5,46.5 Z"/></g>
<g><path style="opacity:1" fill="#e2e2e2" d="M 216.5,47.5 C 245.116,47.8073 273.783,47.4739 302.5,46.5C 304.83,49.8267 306.663,53.4933 308,57.5C 308.595,56.1011 308.428,54.7678 307.5,53.5C 307.97,52.537 308.637,52.537 309.5,53.5C 309.647,56.4431 310.313,59.2764 311.5,62C 310.652,64.7695 310.319,67.6029 310.5,70.5C 291.251,70.5597 272.584,70.5597 254.5,70.5C 243.353,60.3589 230.686,52.6923 216.5,47.5 Z"/></g>
<g><path style="opacity:1" fill="#383838" d="M 210.5,47.5 C 246.961,60.1291 270.127,85.1291 280,122.5C 283.777,165.125 266.277,195.291 227.5,213C 209.699,220.544 192.032,228.378 174.5,236.5C 178.667,243.5 182.833,250.5 187,257.5C 188.01,271.803 181.343,279.47 167,280.5C 162.225,280.628 157.725,279.628 153.5,277.5C 148.539,272.921 144.539,267.587 141.5,261.5C 138.153,256.131 134.819,250.797 131.5,245.5C 126.529,236.546 121.195,227.88 115.5,219.5C 115.369,218.624 115.702,217.957 116.5,217.5C 124.196,214.16 131.863,210.826 139.5,207.5C 148.5,203.5 157.5,199.5 166.5,195.5C 180.284,189.775 193.951,183.775 207.5,177.5C 229.18,167.487 239.013,150.487 237,126.5C 235.615,120.747 233.449,115.414 230.5,110.5C 227.901,105.236 224.234,100.903 219.5,97.5C 207.123,85.8671 192.289,80.2005 175,80.5C 167.605,80.3159 160.438,81.4825 153.5,84C 131.583,93.861 109.583,103.528 87.5,113C 74.3332,117.827 71.1666,126.327 78,138.5C 83.9336,144.866 91.1002,146.866 99.5,144.5C 120.682,135.406 141.682,126.072 162.5,116.5C 175.015,114.511 184.515,118.844 191,129.5C 193.919,140.164 190.419,147.997 180.5,153C 160.716,161.392 141.049,170.059 121.5,179C 97.3514,187.288 74.6847,184.454 53.5,170.5C 49.8704,166.369 46.037,162.369 42,158.5C 32.6844,145.571 29.1844,131.238 31.5,115.5C 34.5931,103.631 40.9264,93.9641 50.5,86.5C 62.0783,80.5436 73.745,74.8769 85.5,69.5C 101.802,63.0113 117.802,56.0113 133.5,48.5C 159.031,39.5557 184.698,39.2223 210.5,47.5 Z"/></g>
<g><path style="opacity:1" fill="#f2f2f2" d="M 219.5,97.5 C 200.242,83.8459 179.242,80.3459 156.5,87C 136.69,95.7594 117.023,104.593 97.5,113.5C 90.5415,115.395 84.3748,118.729 79,123.5C 76.2556,133.171 79.7556,139.671 89.5,143C 93.0252,143.179 96.3586,143.679 99.5,144.5C 91.1002,146.866 83.9336,144.866 78,138.5C 71.1666,126.327 74.3332,117.827 87.5,113C 109.583,103.528 131.583,93.861 153.5,84C 160.438,81.4825 167.605,80.3159 175,80.5C 192.289,80.2005 207.123,85.8671 219.5,97.5 Z"/></g>
<g><path style="opacity:1" fill="#eaeaeb" d="M 19.5,35.5 C 111.5,35.5 203.5,35.5 295.5,35.5C 298.579,38.6505 300.913,42.3171 302.5,46.5C 273.783,47.4739 245.116,47.8073 216.5,47.5C 214.347,46.4271 212.347,46.4271 210.5,47.5C 184.698,39.2223 159.031,39.5557 133.5,48.5C 93.069,47.8389 52.7356,47.1722 12.5,46.5C 14.0875,42.3171 16.4208,38.6505 19.5,35.5 Z"/></g>
<g><path style="opacity:1" fill="#f0f0f0" d="M 29.5,24.5 C 114.833,25.8333 200.167,25.8333 285.5,24.5C 289.544,27.5425 292.877,31.2092 295.5,35.5C 203.5,35.5 111.5,35.5 19.5,35.5C 22.1231,31.2092 25.4564,27.5425 29.5,24.5 Z"/></g>
<g><path style="opacity:1" fill="#f8f8f8" d="M 285.5,24.5 C 200.167,25.8333 114.833,25.8333 29.5,24.5C 41.5747,13.1292 55.908,5.96255 72.5,3C 100.811,1.8778 129.145,1.3778 157.5,1.5C 182.5,1.66667 207.5,1.83333 232.5,2C 253.099,2.976 270.766,10.476 285.5,24.5 Z"/></g>
<g><path style="opacity:1" fill="#cbcccc" d="M 219.5,97.5 C 224.234,100.903 227.901,105.236 230.5,110.5C 229.711,110.783 229.044,111.283 228.5,112C 210.482,112.206 192.482,112.706 174.5,113.5C 170.563,112.863 166.563,113.197 162.5,114.5C 140.76,113.537 119.093,113.204 97.5,113.5C 117.023,104.593 136.69,95.7594 156.5,87C 179.242,80.3459 200.242,83.8459 219.5,97.5 Z"/></g>
<g><path style="opacity:1" fill="#f2f2f2" d="M 141.5,174.5 C 133.855,177.654 126.188,180.821 118.5,184C 105.59,188.12 92.5898,188.453 79.5,185C 71.512,182.003 63.8453,178.503 56.5,174.5C 55.2112,173.363 54.2112,172.03 53.5,170.5C 74.6847,184.454 97.3514,187.288 121.5,179C 141.049,170.059 160.716,161.392 180.5,153C 190.419,147.997 193.919,140.164 191,129.5C 184.515,118.844 175.015,114.511 162.5,116.5C 161.991,115.659 162.657,115.159 164.5,115C 187.752,113.247 197.252,123.747 193,146.5C 191.539,150.26 189.039,153.093 185.5,155C 170.69,161.24 156.023,167.74 141.5,174.5 Z"/></g>
<g><path style="opacity:1" fill="#c4c4c5" d="M 273.5,178.5 C 283.947,157.038 286.28,134.705 280.5,111.5C 280.435,111.062 280.601,110.728 281,110.5C 291.242,112.462 301.742,113.128 312.5,112.5C 312.835,137.867 312.502,161.2 311.5,182.5C 298.833,182.5 286.167,182.5 273.5,182.5C 273.5,181.167 273.5,179.833 273.5,178.5 Z"/></g>
<g><path style="opacity:1" fill="#c3c3c4" d="M 31.5,115.5 C 29.1844,131.238 32.6844,145.571 42,158.5C 46.037,162.369 49.8704,166.369 53.5,170.5C 54.2112,172.03 55.2112,173.363 56.5,174.5C 39.0122,174.453 21.3455,174.453 3.5,174.5C 3.81497,178.371 3.48164,182.038 2.5,185.5C 2.33336,161.164 2.50003,136.831 3,112.5C 12,113.833 21,113.833 30,112.5C 30.2321,113.737 30.7321,114.737 31.5,115.5 Z"/></g>
<g><path style="opacity:1" fill="#c3c4c4" d="M 230.5,110.5 C 233.449,115.414 235.615,120.747 237,126.5C 239.013,150.487 229.18,167.487 207.5,177.5C 207.082,176.778 206.416,176.278 205.5,176C 206.167,175.667 206.833,175.333 207.5,175C 187.26,174.827 167.094,174.327 147,173.5C 145.559,174.26 144.059,174.926 142.5,175.5C 141.893,175.376 141.56,175.043 141.5,174.5C 156.023,167.74 170.69,161.24 185.5,155C 189.039,153.093 191.539,150.26 193,146.5C 197.252,123.747 187.752,113.247 164.5,115C 162.657,115.159 161.991,115.659 162.5,116.5C 141.682,126.072 120.682,135.406 99.5,144.5C 96.3586,143.679 93.0252,143.179 89.5,143C 79.7556,139.671 76.2556,133.171 79,123.5C 84.3748,118.729 90.5415,115.395 97.5,113.5C 119.093,113.204 140.76,113.537 162.5,114.5C 166.563,113.197 170.563,112.863 174.5,113.5C 192.482,112.706 210.482,112.206 228.5,112C 229.044,111.283 229.711,110.783 230.5,110.5 Z"/></g>
<g><path style="opacity:1" fill="#c9caca" d="M 56.5,174.5 C 63.8453,178.503 71.512,182.003 79.5,185C 92.5898,188.453 105.59,188.12 118.5,184C 126.188,180.821 133.855,177.654 141.5,174.5C 141.56,175.043 141.893,175.376 142.5,175.5C 144.059,174.926 145.559,174.26 147,173.5C 167.094,174.327 187.26,174.827 207.5,175C 206.833,175.333 206.167,175.667 205.5,176C 206.416,176.278 207.082,176.778 207.5,177.5C 193.951,183.775 180.284,189.775 166.5,195.5C 166.082,194.778 165.416,194.278 164.5,194C 137.667,193.833 110.833,193.667 84,193.5C 56.7858,193.504 29.7858,194.171 3,195.5C 2.50166,192.183 2.33499,188.85 2.5,185.5C 3.48164,182.038 3.81497,178.371 3.5,174.5C 21.3455,174.453 39.0122,174.453 56.5,174.5 Z"/></g>
<g><path style="opacity:1" fill="#cfd0d0" d="M 50.5,86.5 C 40.9264,93.9641 34.5931,103.631 31.5,115.5C 30.7321,114.737 30.2321,113.737 30,112.5C 21,113.833 12,113.833 3,112.5C 2.50003,136.831 2.33336,161.164 2.5,185.5C 2.33499,188.85 2.50166,192.183 3,195.5C 29.7858,194.171 56.7858,193.504 84,193.5C 110.833,193.667 137.667,193.833 164.5,194C 165.416,194.278 166.082,194.778 166.5,195.5C 157.5,199.5 148.5,203.5 139.5,207.5C 138.737,206.732 137.737,206.232 136.5,206C 91.8296,205.833 47.1629,205.333 2.5,204.5C 1.3396,165.541 1.17293,126.541 2,87.5C 9.76632,86.1835 17.7663,85.5168 26,85.5C 34.2422,85.5146 42.4089,85.8479 50.5,86.5 Z"/></g>
<g><path style="opacity:1" fill="#cececf" d="M 250.5,204.5 C 259.625,197.047 267.291,188.38 273.5,178.5C 273.5,179.833 273.5,181.167 273.5,182.5C 286.167,182.5 298.833,182.5 311.5,182.5C 312.502,161.2 312.835,137.867 312.5,112.5C 301.742,113.128 291.242,112.462 281,110.5C 280.601,110.728 280.435,111.062 280.5,111.5C 276.727,102.62 272.393,93.9532 267.5,85.5C 282.527,85.4716 297.86,85.4716 313.5,85.5C 313.667,124.835 313.5,164.168 313,203.5C 293.333,204.833 273.667,204.833 254,203.5C 253,204.167 252,204.833 251,205.5C 250.601,205.272 250.435,204.938 250.5,204.5 Z"/></g>
<g><path style="opacity:1" fill="#e1e2e2" d="M 115.5,219.5 C 121.195,227.88 126.529,236.546 131.5,245.5C 89.3744,245.514 47.0411,245.514 4.5,245.5C 4.5,246.5 4.5,247.5 4.5,248.5C 3.77842,248.918 3.27842,249.584 3,250.5C 2.50144,247.978 2.6681,245.478 3.5,243C 3.1493,239.896 2.6493,240.063 2,243.5C 1.83722,234.844 2.00389,226.178 2.5,217.5C 39.5544,216.843 76.3877,217.51 113,219.5C 113.333,218.833 113.667,218.167 114,217.5C 114.278,218.416 114.778,219.082 115.5,219.5 Z"/></g>
<g><path style="opacity:1" fill="#e2e2e2" d="M 231.5,215.5 C 231.918,216.222 232.584,216.722 233.5,217C 259.831,217.5 286.165,217.667 312.5,217.5C 312.996,226.178 313.163,234.844 313,243.5C 312.351,240.063 311.851,239.896 311.5,243C 312.332,245.478 312.499,247.978 312,250.5C 311.722,249.584 311.222,248.918 310.5,248.5C 310.5,247.5 310.5,246.5 310.5,245.5C 268.167,245.5 225.833,245.5 183.5,245.5C 182.392,243.219 181.058,241.052 179.5,239C 196.702,230.877 214.036,223.044 231.5,215.5 Z"/></g>
<g><path style="opacity:1" fill="#eaeaea" d="M 131.5,245.5 C 134.819,250.797 138.153,256.131 141.5,261.5C 139.897,261.688 138.563,261.188 137.5,260C 94.3314,259.169 51.3314,259.335 8.5,260.5C 6.59468,256.784 5.26135,252.784 4.5,248.5C 4.5,247.5 4.5,246.5 4.5,245.5C 47.0411,245.514 89.3744,245.514 131.5,245.5 Z"/></g>
<g><path style="opacity:1" fill="#eaeaea" d="M 183.5,245.5 C 225.833,245.5 268.167,245.5 310.5,245.5C 310.5,246.5 310.5,247.5 310.5,248.5C 309.739,252.784 308.405,256.784 306.5,260.5C 268.337,259.501 230.004,259.168 191.5,259.5C 191.649,260.552 191.483,261.552 191,262.5C 190.113,256.065 187.613,250.398 183.5,245.5 Z"/></g>
<g><path style="opacity:0.016" fill="#dedede" d="M 1.5,255.5 C 1.83333,255.5 2.16667,255.5 2.5,255.5C 2.5,256.5 2.5,257.5 2.5,258.5C 1.59603,257.791 1.26269,256.791 1.5,255.5 Z"/></g>
<g><path style="opacity:0.016" fill="#dedede" d="M 312.5,255.5 C 312.833,255.5 313.167,255.5 313.5,255.5C 313.737,256.791 313.404,257.791 312.5,258.5C 312.5,257.5 312.5,256.5 312.5,255.5 Z"/></g>
<g><path style="opacity:0.012" fill="#c5c5c5" d="M 2.5,258.5 C 2.83333,258.5 3.16667,258.5 3.5,258.5C 3.5,259.167 3.5,259.833 3.5,260.5C 2.66175,260.158 2.32842,259.492 2.5,258.5 Z"/></g>
<g><path style="opacity:1" fill="#f0f0f0" d="M 141.5,261.5 C 144.539,267.587 148.539,272.921 153.5,277.5C 151.7,278.308 150.033,277.808 148.5,276C 104.665,275.169 60.9981,275.335 17.5,276.5C 13.4905,271.823 10.4905,266.489 8.5,260.5C 51.3314,259.335 94.3314,259.169 137.5,260C 138.563,261.188 139.897,261.688 141.5,261.5 Z"/></g>
<g><path style="opacity:0.012" fill="#c5c5c5" d="M 311.5,258.5 C 311.833,258.5 312.167,258.5 312.5,258.5C 312.672,259.492 312.338,260.158 311.5,260.5C 311.5,259.833 311.5,259.167 311.5,258.5 Z"/></g>
<g><path style="opacity:1" fill="#f4f5f5" d="M 216.5,47.5 C 230.686,52.6923 243.353,60.3589 254.5,70.5C 259.079,75.3536 263.413,80.3536 267.5,85.5C 272.393,93.9532 276.727,102.62 280.5,111.5C 286.28,134.705 283.947,157.038 273.5,178.5C 267.291,188.38 259.625,197.047 250.5,204.5C 244.658,208.924 238.324,212.591 231.5,215.5C 214.036,223.044 196.702,230.877 179.5,239C 181.058,241.052 182.392,243.219 183.5,245.5C 187.613,250.398 190.113,256.065 191,262.5C 191.483,261.552 191.649,260.552 191.5,259.5C 230.004,259.168 268.337,259.501 306.5,260.5C 301.248,274.087 292.915,285.42 281.5,294.5C 198.833,293.167 116.167,293.167 33.5,294.5C 27.059,289.398 21.7256,283.398 17.5,276.5C 60.9981,275.335 104.665,275.169 148.5,276C 150.033,277.808 151.7,278.308 153.5,277.5C 157.725,279.628 162.225,280.628 167,280.5C 181.343,279.47 188.01,271.803 187,257.5C 182.833,250.5 178.667,243.5 174.5,236.5C 192.032,228.378 209.699,220.544 227.5,213C 266.277,195.291 283.777,165.125 280,122.5C 270.127,85.1291 246.961,60.1291 210.5,47.5C 212.347,46.4271 214.347,46.4271 216.5,47.5 Z"/></g>
<g><path style="opacity:0.016" fill="#bebfbe" d="M 296.5,284.5 C 296.833,284.5 297.167,284.5 297.5,284.5C 297.315,285.17 296.981,285.17 296.5,284.5 Z"/></g>
<g><path style="opacity:0.016" fill="#fefffe" d="M 295.5,285.5 C 295.833,285.5 296.167,285.5 296.5,285.5C 296.315,286.17 295.981,286.17 295.5,285.5 Z"/></g>
<g><path style="opacity:0.005" fill="#d9d9d9" d="M 20.5,286.5 C 21.1667,286.5 21.5,286.833 21.5,287.5C 22.1667,287.5 22.5,287.833 22.5,288.5C 23.1667,288.5 23.5,288.833 23.5,289.5C 24.1667,289.5 24.5,289.833 24.5,290.5C 25.1667,290.5 25.5,290.833 25.5,291.5C 26.1667,291.5 26.5,291.833 26.5,292.5C 27.1667,292.5 27.5,292.833 27.5,293.5C 28.1667,293.5 28.5,293.833 28.5,294.5C 28.1034,295.525 27.4368,295.692 26.5,295C 24.3333,292.833 22.1667,290.667 20,288.5C 19.3083,287.563 19.475,286.897 20.5,286.5 Z"/></g>
<g><path style="opacity:0.005" fill="#cdcdcd" d="M 294.5,286.5 C 294.833,286.5 295.167,286.5 295.5,286.5C 293.5,290.5 290.5,293.5 286.5,295.5C 286.5,295.167 286.5,294.833 286.5,294.5C 287.167,294.5 287.5,294.167 287.5,293.5C 288.167,293.5 288.5,293.167 288.5,292.5C 289.167,292.5 289.5,292.167 289.5,291.5C 290.167,291.5 290.5,291.167 290.5,290.5C 291.167,290.5 291.5,290.167 291.5,289.5C 292.167,289.5 292.5,289.167 292.5,288.5C 293.167,288.5 293.5,288.167 293.5,287.5C 294.167,287.5 294.5,287.167 294.5,286.5 Z"/></g>
<g><path style="opacity:1" fill="#fbfbfb" d="M 33.5,294.5 C 116.167,293.167 198.833,293.167 281.5,294.5C 269.786,303.853 256.453,309.686 241.5,312C 213.524,313.127 185.524,313.627 157.5,313.5C 129.145,313.622 100.811,313.122 72.5,312C 57.9654,309.396 44.9654,303.563 33.5,294.5 Z"/></g>
<g><path style="opacity:0.016" fill="#bebfbe" d="M 285.5,295.5 C 285.833,295.5 286.167,295.5 286.5,295.5C 286.315,296.17 285.981,296.17 285.5,295.5 Z"/></g>
<g><path style="opacity:0.016" fill="#bebfbe" d="M 284.5,296.5 C 284.833,296.5 285.167,296.5 285.5,296.5C 285.315,297.17 284.981,297.17 284.5,296.5 Z"/></g>
<g><path style="opacity:0.012" fill="#a9aaa9" d="M 283.5,297.5 C 283.833,297.5 284.167,297.5 284.5,297.5C 284.315,298.17 283.981,298.17 283.5,297.5 Z"/></g>
<g><path style="opacity:0.008" fill="#a7a7a7" d="M 281.5,299.5 C 281.5,299.167 281.5,298.833 281.5,298.5C 282.167,298.5 282.833,298.5 283.5,298.5C 283.158,299.338 282.492,299.672 281.5,299.5 Z"/></g>
<g><path style="opacity:0.016" fill="#bebfbe" d="M 280.5,299.5 C 280.833,299.5 281.167,299.5 281.5,299.5C 281.315,300.17 280.981,300.17 280.5,299.5 Z"/></g>
<g><path style="opacity:0.012" fill="#fefffe" d="M 279.5,300.5 C 279.833,300.5 280.167,300.5 280.5,300.5C 280.315,301.17 279.981,301.17 279.5,300.5 Z"/></g>
<g><path style="opacity:0.006" fill="#fefffe" d="M 277.5,302.5 C 277.5,302.167 277.5,301.833 277.5,301.5C 278.167,301.5 278.833,301.5 279.5,301.5C 279.158,302.338 278.492,302.672 277.5,302.5 Z"/></g>
<g><path style="opacity:0.012" fill="#fefffe" d="M 276.5,302.5 C 276.833,302.5 277.167,302.5 277.5,302.5C 277.315,303.17 276.981,303.17 276.5,302.5 Z"/></g>
<g><path style="opacity:0.008" fill="#8d8d8d" d="M 274.5,304.5 C 274.5,304.167 274.5,303.833 274.5,303.5C 275.167,303.5 275.833,303.5 276.5,303.5C 276.158,304.338 275.492,304.672 274.5,304.5 Z"/></g>
<g><path style="opacity:0.012" fill="#a9aaa9" d="M 273.5,304.5 C 273.833,304.5 274.167,304.5 274.5,304.5C 274.315,305.17 273.981,305.17 273.5,304.5 Z"/></g>
<g><path style="opacity:0.004" fill="#e9e9e9" d="M 271.5,306.5 C 271.5,306.167 271.5,305.833 271.5,305.5C 272.167,305.5 272.833,305.5 273.5,305.5C 273.158,306.338 272.492,306.672 271.5,306.5 Z"/></g>
<g><path style="opacity:0.008" fill="#a7a7a7" d="M 269.5,307.5 C 269.5,307.167 269.5,306.833 269.5,306.5C 270.167,306.5 270.833,306.5 271.5,306.5C 271.158,307.338 270.492,307.672 269.5,307.5 Z"/></g>
<g><path style="opacity:0.01" fill="#fefffe" d="M 267.5,308.5 C 267.5,308.167 267.5,307.833 267.5,307.5C 268.167,307.5 268.833,307.5 269.5,307.5C 269.158,308.338 268.492,308.672 267.5,308.5 Z"/></g>
<g><path style="opacity:0.01" fill="#fefffe" d="M 265.5,309.5 C 265.5,309.167 265.5,308.833 265.5,308.5C 266.167,308.5 266.833,308.5 267.5,308.5C 267.158,309.338 266.492,309.672 265.5,309.5 Z"/></g>
<g><path style="opacity:0.012" fill="#d2d2d2" d="M 51.5,309.5 C 51.5,309.833 51.5,310.167 51.5,310.5C 48.8333,310.167 48.8333,309.833 51.5,309.5 Z"/></g>
<g><path style="opacity:0.008" fill="#a7a7a7" d="M 263.5,310.5 C 263.5,310.167 263.5,309.833 263.5,309.5C 264.167,309.5 264.833,309.5 265.5,309.5C 265.158,310.338 264.492,310.672 263.5,310.5 Z"/></g>
<g><path style="opacity:0.016" fill="#d3d3d3" d="M 51.5,310.5 C 52.2389,310.369 52.9056,310.536 53.5,311C 52.5632,311.692 51.8966,311.525 51.5,310.5 Z"/></g>
<g><path style="opacity:0.004" fill="#e9e9e9" d="M 263.5,310.5 C 263.103,311.525 262.437,311.692 261.5,311C 262.094,310.536 262.761,310.369 263.5,310.5 Z"/></g>
<g><path style="opacity:0.012" fill="#c5c5c5" d="M 258.5,312.5 C 258.5,312.167 258.5,311.833 258.5,311.5C 261.167,311.833 261.167,312.167 258.5,312.5 Z"/></g>
<g><path style="opacity:0.009" fill="#fefffe" d="M 59.5,312.5 C 59.5,312.833 59.5,313.167 59.5,313.5C 55.5,313.167 55.5,312.833 59.5,312.5 Z"/></g>
<g><path style="opacity:0.009" fill="#fefffe" d="M 255.5,313.5 C 255.5,313.167 255.5,312.833 255.5,312.5C 256.5,312.5 257.5,312.5 258.5,312.5C 257.791,313.404 256.791,313.737 255.5,313.5 Z"/></g>
<g><path style="opacity:0.008" fill="#eeeeee" d="M 59.5,313.5 C 60.791,313.263 61.791,313.596 62.5,314.5C 61.209,314.737 60.209,314.404 59.5,313.5 Z"/></g>
<g><path style="opacity:0.008" fill="#eeeeee" d="M 252.5,314.5 C 253.209,313.596 254.209,313.263 255.5,313.5C 254.791,314.404 253.791,314.737 252.5,314.5 Z"/></g>
<g><path style="opacity:0.012" fill="#bababa" d="M 62.5,315.5 C 62.5,315.167 62.5,314.833 62.5,314.5C 64.4147,314.216 66.0813,314.549 67.5,315.5C 65.8333,315.5 64.1667,315.5 62.5,315.5 Z"/></g>
<g><path style="opacity:0.016" fill="#b7b7b7" d="M 247.5,315.5 C 248.919,314.549 250.585,314.216 252.5,314.5C 252.5,314.833 252.5,315.167 252.5,315.5C 250.833,315.5 249.167,315.5 247.5,315.5 Z"/></g>
</svg>
