<?xml version="1.0" standalone="no"?>
<!DOCTYPE svg PUBLIC "-//W3C//DTD SVG 20010904//EN"
 "http://www.w3.org/TR/2001/REC-SVG-20010904/DTD/svg10.dtd">
<svg version="1.0" xmlns="http://www.w3.org/2000/svg"
 width="1280.000000pt" height="1280.000000pt" viewBox="0 0 1280.000000 1280.000000"
 preserveAspectRatio="xMidYMid meet">

<g transform="translate(0.000000,1280.000000) scale(0.100000,-0.100000)"
fill="#000000" stroke="none">
<path d="M5894 11661 c30 -12 -47 -28 -194 -41 -129 -11 -157 -15 -225 -30
-22 -4 -74 -14 -115 -20 -41 -7 -106 -20 -145 -30 -38 -10 -104 -25 -145 -34
-91 -19 -190 -44 -250 -63 -25 -8 -76 -23 -115 -34 -96 -26 -226 -68 -249 -81
-19 -10 -85 -34 -191 -70 -33 -11 -85 -31 -115 -45 -83 -39 -110 -50 -170 -73
-30 -11 -101 -44 -157 -73 -56 -29 -146 -74 -200 -102 -54 -27 -100 -53 -103
-56 -3 -3 -25 -16 -50 -28 -41 -20 -67 -35 -169 -96 -66 -40 -336 -220 -350
-233 -8 -8 -30 -24 -50 -38 -37 -24 -82 -57 -148 -109 -120 -94 -153 -120
-196 -157 -26 -23 -57 -48 -69 -57 -12 -8 -29 -22 -38 -30 -10 -9 -57 -52
-106 -96 -120 -108 -252 -242 -405 -411 -52 -58 -196 -231 -261 -315 -32 -41
-65 -83 -73 -94 -76 -98 -269 -388 -341 -513 -141 -245 -203 -367 -342 -672
-11 -25 -37 -88 -57 -140 -20 -52 -43 -108 -50 -125 -7 -16 -18 -48 -25 -70
-6 -22 -20 -60 -30 -85 -80 -192 -226 -806 -246 -1030 -3 -36 -12 -99 -19
-140 -48 -261 -48 -1216 0 -1410 7 -30 16 -91 20 -135 19 -232 136 -716 249
-1035 13 -36 29 -81 36 -100 34 -99 136 -344 165 -400 13 -25 38 -76 55 -115
17 -38 38 -83 47 -100 9 -16 35 -69 59 -116 24 -47 65 -122 91 -167 26 -44 70
-118 96 -165 27 -46 75 -122 107 -168 32 -46 69 -99 82 -117 13 -19 32 -44 43
-57 11 -13 36 -47 55 -74 19 -28 45 -63 58 -78 30 -36 100 -125 129 -165 13
-17 29 -36 37 -42 8 -6 47 -52 88 -101 95 -115 403 -424 516 -517 48 -39 95
-81 104 -92 16 -20 28 -21 208 -24 137 -2 196 0 206 9 8 6 14 27 14 47 0 40
-31 74 -156 168 -78 59 -160 132 -329 294 -163 157 -171 166 -320 334 -39 44
-77 87 -85 96 -8 9 -26 31 -40 50 -14 18 -30 38 -36 44 -6 6 -59 76 -118 156
-133 179 -134 180 -149 206 -7 12 -31 48 -53 81 -54 75 -162 256 -203 338 -11
22 -27 51 -35 65 -9 14 -33 61 -54 105 -22 44 -46 94 -55 110 -16 30 -58 121
-95 205 -11 25 -30 68 -42 95 -22 51 -44 109 -85 227 -13 37 -28 76 -34 86 -6
10 -20 52 -31 93 -39 133 -72 253 -87 314 -8 33 -23 96 -34 140 -40 164 -71
341 -95 550 -8 77 -20 178 -26 225 -14 113 -14 749 0 875 44 389 53 463 66
513 8 32 17 77 21 102 7 50 48 227 103 445 8 33 42 139 74 235 124 362 115
341 272 661 47 97 86 180 86 183 0 4 21 44 47 89 26 45 55 94 63 109 39 71
213 342 230 358 3 3 22 30 43 60 170 250 539 667 762 863 44 38 109 97 145
131 36 34 91 82 123 106 32 25 88 69 125 98 37 29 90 68 117 87 28 19 77 53
110 76 33 23 83 57 110 75 28 19 57 38 65 44 8 5 35 23 60 38 25 16 58 37 75
48 39 25 175 100 295 162 52 27 109 57 125 65 17 9 68 33 115 52 47 20 97 43
112 51 15 8 44 21 65 29 21 7 76 30 123 50 47 20 110 45 140 55 30 10 93 33
140 50 87 32 183 61 349 105 52 14 99 29 105 32 27 17 517 107 696 128 63 8
180 21 260 31 205 24 816 23 1010 -1 74 -9 194 -23 267 -30 72 -7 136 -15 141
-19 5 -3 70 -15 143 -26 74 -12 148 -26 164 -31 17 -5 73 -19 125 -29 181 -38
576 -155 636 -189 11 -6 42 -17 69 -25 51 -15 146 -52 222 -87 24 -10 48 -19
54 -19 6 0 28 -9 48 -19 20 -10 117 -58 216 -105 99 -48 187 -91 195 -96 8 -5
67 -40 130 -76 332 -194 576 -366 854 -599 39 -33 82 -69 95 -80 13 -11 47
-42 76 -70 29 -27 86 -82 126 -120 41 -39 117 -117 169 -175 52 -57 110 -120
129 -139 66 -71 238 -288 341 -433 109 -152 269 -396 270 -412 0 -5 6 -17 14
-25 7 -9 46 -79 86 -156 40 -77 76 -144 80 -150 4 -5 13 -26 20 -45 7 -19 19
-42 25 -50 6 -8 18 -31 25 -50 7 -19 26 -64 42 -100 16 -36 33 -74 38 -85 21
-47 63 -154 81 -205 10 -30 23 -64 29 -75 22 -47 119 -360 148 -480 50 -207
59 -253 112 -585 27 -166 50 -431 57 -670 13 -428 -53 -1026 -157 -1415 -10
-38 -24 -95 -30 -125 -13 -58 -62 -214 -85 -265 -7 -16 -16 -48 -20 -70 -4
-21 -15 -55 -24 -75 -10 -19 -21 -48 -25 -65 -4 -16 -18 -54 -32 -83 -13 -29
-24 -55 -24 -59 0 -3 -11 -29 -24 -57 -13 -28 -38 -85 -56 -126 -95 -221 -243
-496 -405 -752 -42 -66 -124 -182 -200 -282 -49 -65 -97 -129 -106 -142 -9
-14 -23 -32 -32 -42 -9 -9 -47 -53 -84 -97 -37 -44 -77 -90 -88 -102 -278
-302 -420 -437 -698 -666 -104 -86 -99 -79 -92 -119 4 -20 13 -39 21 -42 11
-4 235 -8 345 -6 31 0 101 52 231 171 158 145 396 390 474 488 10 13 44 52 74
86 178 202 399 513 577 815 169 286 337 639 424 890 11 30 26 69 33 85 8 17
20 53 27 80 6 28 16 55 21 62 10 12 46 133 75 248 8 33 22 83 30 110 15 48 24
88 72 325 11 58 28 137 36 175 8 39 19 120 25 180 6 61 18 171 28 245 24 192
24 862 0 1030 -9 63 -22 171 -28 240 -6 69 -17 150 -25 180 -8 30 -18 89 -24
132 -6 42 -19 109 -30 150 -11 40 -23 98 -27 128 -3 30 -11 66 -16 80 -6 14
-21 63 -34 110 -53 198 -63 229 -93 315 -62 178 -77 220 -94 252 -9 18 -17 37
-17 44 0 10 -32 88 -84 204 -43 95 -89 193 -101 215 -7 14 -34 66 -59 115 -54
105 -103 196 -134 245 -12 19 -31 53 -43 75 -21 38 -228 353 -249 378 -6 7
-42 55 -81 107 -39 52 -99 129 -133 170 -34 41 -67 82 -72 92 -5 9 -41 51 -80
95 -39 43 -85 95 -103 115 -41 47 -339 340 -406 399 -27 24 -66 59 -87 78 -21
19 -48 41 -60 49 -13 9 -44 34 -70 56 -25 23 -63 54 -85 69 -21 16 -83 62
-138 104 -133 99 -450 310 -540 358 -22 12 -62 34 -90 50 -184 104 -612 315
-639 315 -3 0 -25 9 -49 20 -23 11 -69 28 -102 39 -87 28 -178 62 -190 71 -5
5 -35 15 -65 24 -30 8 -100 29 -155 47 -55 17 -134 40 -175 51 -41 10 -104 27
-140 38 -36 11 -94 24 -130 30 -36 6 -85 17 -110 25 -25 7 -65 16 -90 20 -25
3 -88 15 -140 25 -52 10 -156 24 -230 30 -157 14 -226 28 -195 41 11 4 -272 8
-630 8 -357 0 -641 -4 -631 -8z m916 -91 c203 -9 706 -60 730 -75 4 -3 52 -11
106 -20 106 -16 340 -67 414 -90 25 -7 78 -21 119 -31 41 -9 86 -23 100 -30
14 -8 31 -14 38 -14 14 0 185 -54 258 -81 28 -10 93 -35 145 -54 145 -54 228
-90 440 -191 74 -36 142 -69 150 -74 8 -5 56 -30 105 -56 91 -47 143 -76 186
-105 26 -17 167 -102 214 -129 105 -61 304 -207 558 -410 242 -194 633 -581
782 -775 17 -22 62 -78 100 -125 93 -113 169 -215 243 -325 53 -79 91 -140
229 -364 18 -30 33 -59 33 -65 0 -5 6 -17 14 -25 19 -22 236 -459 236 -476 0
-2 16 -38 35 -79 19 -41 35 -82 35 -90 0 -8 4 -18 10 -21 5 -3 19 -36 30 -72
11 -37 24 -71 29 -77 5 -6 17 -39 26 -74 8 -35 22 -77 30 -95 17 -41 72 -219
84 -277 6 -25 16 -63 24 -85 8 -22 18 -65 22 -95 3 -30 14 -82 22 -115 27
-104 62 -314 82 -495 11 -96 26 -227 33 -290 18 -155 17 -664 -1 -845 -34
-351 -81 -676 -111 -770 -5 -16 -14 -61 -21 -100 -14 -88 -67 -279 -114 -415
-20 -58 -42 -127 -49 -155 -7 -27 -18 -60 -25 -73 -7 -13 -18 -42 -26 -65 -16
-50 -54 -146 -97 -242 -54 -122 -128 -279 -138 -295 -6 -8 -15 -26 -20 -40 -6
-14 -15 -34 -22 -45 -11 -18 -45 -80 -88 -161 -9 -16 -26 -44 -38 -61 -12 -17
-26 -41 -32 -54 -18 -42 -173 -285 -234 -365 -17 -23 -40 -55 -51 -70 -11 -15
-29 -39 -40 -53 -12 -14 -29 -39 -39 -54 -9 -16 -24 -36 -31 -45 -8 -9 -37
-46 -65 -82 -28 -35 -77 -93 -108 -129 -31 -36 -73 -83 -92 -105 -192 -221
-534 -545 -606 -575 -37 -15 -117 -6 -135 15 -11 13 1 26 91 100 98 80 383
355 492 475 131 144 200 227 263 311 11 15 45 57 75 95 31 37 64 81 75 97 11
16 29 41 40 56 78 109 212 314 272 419 67 118 246 470 291 571 11 25 32 71 46
102 14 31 26 62 26 69 0 7 9 31 19 53 25 52 67 163 90 241 10 33 23 71 29 85
38 91 147 536 183 750 45 267 79 668 79 926 0 213 -31 665 -55 799 -8 44 -22
125 -30 180 -8 55 -24 138 -34 185 -55 241 -84 359 -96 395 -8 22 -30 94 -50
160 -20 66 -45 140 -56 165 -10 25 -36 92 -58 150 -60 159 -95 237 -219 485
-93 187 -137 272 -170 325 -12 19 -33 55 -47 80 -14 25 -33 56 -44 70 -10 14
-49 72 -87 129 -38 57 -78 116 -89 131 -11 15 -46 63 -77 106 -31 44 -69 93
-85 109 -16 17 -37 44 -48 60 -59 93 -562 619 -699 730 -27 22 -68 56 -91 75
-105 86 -208 166 -310 240 -147 106 -161 116 -225 155 -30 18 -67 43 -82 54
-14 12 -30 21 -34 21 -4 0 -21 10 -38 23 -31 23 -283 165 -361 203 -22 11 -67
34 -100 51 -104 54 -227 109 -390 173 -55 22 -118 49 -140 60 -21 11 -45 20
-53 20 -7 0 -41 11 -75 24 -105 40 -372 122 -492 151 -142 35 -283 66 -390 85
-60 11 -141 27 -180 34 -38 8 -135 19 -215 26 -80 6 -193 18 -252 26 -125 16
-737 20 -883 4 -49 -5 -157 -16 -240 -25 -318 -32 -611 -86 -900 -165 -60 -17
-141 -39 -180 -49 -69 -18 -368 -122 -402 -140 -10 -5 -56 -24 -103 -41 -47
-18 -112 -45 -145 -60 -33 -15 -96 -42 -140 -61 -44 -18 -87 -38 -95 -44 -8
-7 -53 -29 -100 -50 -47 -22 -92 -44 -100 -50 -8 -7 -53 -34 -100 -60 -236
-134 -281 -160 -350 -210 -41 -30 -88 -62 -105 -71 -16 -9 -42 -26 -57 -38
-14 -12 -61 -46 -103 -76 -198 -142 -562 -462 -750 -660 -140 -147 -400 -456
-451 -535 -10 -16 -48 -69 -84 -117 -36 -47 -78 -110 -95 -138 -16 -29 -39
-64 -51 -78 -57 -75 -262 -452 -362 -668 -79 -171 -141 -325 -194 -479 -11
-33 -26 -74 -33 -90 -8 -17 -19 -52 -24 -78 -6 -25 -17 -64 -25 -84 -8 -21
-20 -63 -27 -93 -7 -30 -18 -69 -25 -86 -7 -17 -20 -72 -29 -122 -9 -51 -20
-104 -25 -117 -5 -14 -16 -69 -25 -122 -9 -54 -22 -120 -30 -148 -7 -27 -19
-106 -25 -175 -6 -69 -19 -179 -28 -245 -21 -152 -23 -812 -3 -970 7 -55 21
-174 31 -265 11 -91 25 -183 31 -205 6 -22 17 -76 24 -120 7 -44 21 -116 32
-160 11 -44 25 -102 31 -130 9 -45 43 -165 93 -330 9 -33 31 -96 47 -140 16
-44 41 -111 55 -150 30 -82 70 -181 99 -245 38 -84 129 -275 138 -290 5 -8 32
-60 60 -115 58 -115 69 -135 131 -230 25 -38 48 -77 51 -86 7 -18 55 -92 130
-200 53 -77 78 -110 166 -227 26 -34 57 -77 70 -95 22 -31 160 -196 192 -228
8 -9 60 -65 115 -125 129 -139 210 -219 352 -346 64 -57 139 -124 167 -149
l50 -47 -34 -17 c-57 -29 -144 -3 -211 64 -14 14 -51 48 -82 74 -114 98 -310
298 -467 477 -118 134 -126 144 -168 200 -22 30 -69 92 -104 137 -35 46 -74
99 -88 118 -14 20 -35 50 -48 68 -36 51 -124 184 -165 251 -20 34 -41 68 -47
76 -5 8 -30 53 -55 100 -25 47 -50 92 -55 100 -6 8 -21 38 -35 65 -13 28 -29
57 -34 65 -15 23 -121 249 -121 258 0 4 -10 25 -21 47 -12 22 -30 63 -39 91
-10 28 -23 59 -29 70 -6 10 -18 39 -27 64 -9 25 -30 81 -46 125 -16 44 -38
107 -49 140 -10 33 -25 80 -33 105 -70 220 -137 491 -167 675 -68 424 -79 569
-79 1010 0 262 20 681 34 703 2 4 14 78 25 163 12 86 25 169 30 185 6 16 17
70 26 119 18 103 57 267 87 370 33 109 88 278 97 295 5 8 16 42 25 75 16 57
27 88 82 215 13 30 37 89 55 130 102 245 247 524 407 786 13 21 162 238 185
269 12 16 47 64 77 105 118 163 337 416 534 620 102 105 378 354 471 425 28
21 68 53 90 71 22 19 54 44 72 56 18 13 88 63 155 111 135 97 259 179 356 235
35 20 86 51 115 69 29 18 66 38 82 46 17 8 62 32 101 54 38 22 112 59 164 83
52 23 133 61 179 82 46 22 100 46 120 53 20 7 74 30 121 50 84 36 176 70 275
102 28 9 73 24 100 34 90 32 246 79 263 79 9 1 35 8 57 16 22 8 76 21 120 30
44 8 100 21 125 29 25 8 90 22 145 30 55 9 114 21 130 26 17 5 95 16 175 24
80 8 194 22 253 31 101 14 369 29 587 32 52 1 201 -3 330 -8z"/>
<path d="M6100 11092 l-35 -17 0 -70 c0 -38 6 -149 13 -245 34 -456 33 -527
-5 -578 -27 -36 -90 -71 -146 -78 -80 -11 -173 52 -192 131 -15 63 -27 212
-54 632 -8 111 -14 150 -26 162 -19 20 -119 20 -154 1 l-24 -12 6 -182 c7
-173 21 -334 52 -585 13 -103 19 -121 50 -168 84 -126 153 -163 306 -163 103
0 183 15 221 41 14 11 30 19 36 19 17 0 83 81 103 125 42 95 43 171 9 670 -19
278 -21 298 -44 317 -27 22 -72 23 -116 0z"/>
<path d="M6876 11091 c-19 -7 -57 -93 -121 -271 -19 -52 -45 -124 -59 -160
-13 -36 -38 -101 -55 -145 -16 -44 -46 -123 -66 -175 -65 -172 -115 -313 -115
-325 0 -19 47 -35 100 -35 65 0 92 25 120 113 12 37 33 81 47 97 23 28 30 30
91 30 105 -1 259 -18 282 -32 19 -12 56 -108 75 -196 9 -42 51 -62 128 -62 80
0 93 24 66 120 -13 47 -42 143 -79 265 -16 55 -30 108 -30 118 0 10 -12 45
-26 80 -33 82 -46 121 -84 252 -34 121 -39 137 -71 242 -20 69 -23 73 -58 83
-41 11 -117 12 -145 1z m132 -467 c13 -55 28 -120 35 -146 10 -43 9 -49 -9
-63 -27 -20 -155 -20 -195 1 -28 14 -30 19 -25 49 9 44 83 243 102 273 15 23
15 23 42 4 21 -16 30 -38 50 -118z"/>
<path d="M7968 10880 c-63 -11 -152 -62 -208 -119 -112 -115 -176 -322 -167
-546 7 -180 39 -262 147 -374 108 -111 312 -175 460 -145 151 31 175 53 204
184 9 41 23 107 32 145 9 39 18 90 20 115 5 42 3 46 -28 67 -18 12 -58 28 -88
37 -30 8 -80 24 -110 35 -71 26 -146 28 -159 3 -12 -22 -16 -91 -8 -117 5 -13
36 -33 90 -56 82 -35 82 -35 85 -75 3 -48 -24 -96 -70 -124 -85 -52 -282 6
-332 98 -44 78 -50 100 -54 195 -11 250 85 453 230 486 55 12 73 10 160 -15
26 -8 90 -62 114 -98 12 -18 27 -51 34 -74 13 -49 39 -69 98 -77 37 -4 47 -1
69 21 22 22 24 31 19 65 -25 155 -107 260 -259 331 -93 43 -177 55 -279 38z"/>
<path d="M4722 10830 c-40 -9 -80 -24 -90 -32 -9 -7 -29 -20 -44 -28 -79 -39
-189 -185 -220 -290 -31 -109 -34 -192 -9 -316 33 -169 81 -279 157 -366 43
-48 125 -115 154 -123 52 -16 148 -22 210 -13 160 22 355 159 416 293 25 54
25 55 9 117 -10 35 -24 92 -31 128 -21 95 -53 187 -70 201 -12 10 -26 10 -62
2 -68 -16 -202 -66 -253 -94 -38 -21 -44 -29 -47 -61 -2 -20 4 -52 12 -72 14
-33 19 -36 54 -36 22 0 58 7 81 15 62 22 101 2 115 -58 13 -54 -3 -94 -62
-152 -46 -45 -68 -59 -122 -75 -81 -24 -101 -24 -161 -2 -89 33 -141 101 -196
257 -24 70 -27 95 -28 200 0 138 11 171 79 237 41 39 69 55 154 83 42 15 46
14 99 -10 30 -13 68 -36 83 -49 25 -20 35 -23 65 -16 19 4 51 20 70 35 28 21
35 33 35 61 0 29 -10 46 -55 94 -46 47 -66 60 -114 74 -71 20 -135 19 -229 -4z"/>
<path d="M8947 10510 c-14 -11 -29 -31 -32 -43 -8 -25 -67 -163 -95 -222 -10
-22 -33 -71 -50 -110 -17 -38 -37 -83 -45 -100 -8 -16 -35 -79 -59 -140 -24
-60 -61 -148 -81 -195 -71 -163 -69 -180 17 -230 29 -17 73 -44 98 -60 25 -16
65 -40 90 -53 25 -13 88 -50 140 -83 52 -33 121 -75 154 -93 l58 -34 30 30
c20 20 31 44 35 71 5 36 2 44 -24 69 -16 15 -53 42 -82 58 -29 17 -65 39 -79
51 -15 12 -43 29 -62 39 -19 10 -70 41 -112 69 -100 65 -100 60 -18 241 27 61
47 85 71 85 16 0 99 -49 242 -142 53 -35 138 -78 155 -78 7 0 24 25 39 55 26
52 27 58 13 83 -15 26 -63 64 -130 103 -19 11 -55 33 -80 49 -25 16 -65 40
-90 54 -25 13 -56 35 -69 49 -26 29 -25 51 9 122 10 22 23 52 28 66 18 45 57
44 134 -4 37 -23 86 -52 109 -64 23 -12 49 -28 58 -36 9 -7 27 -19 41 -25 14
-7 43 -24 65 -37 51 -31 88 -32 103 -2 10 20 32 94 32 108 0 7 -97 83 -115 90
-13 5 -106 62 -165 99 -25 16 -62 39 -83 50 -21 12 -66 40 -100 63 -53 36
-109 67 -121 67 -2 0 -15 -9 -29 -20z"/>
<path d="M3827 10406 c-36 -16 -77 -63 -77 -88 0 -11 9 -36 19 -56 11 -20 32
-64 46 -97 15 -33 49 -105 75 -160 125 -261 133 -285 90 -285 -15 0 -87 42
-135 78 -5 4 -77 52 -159 106 -82 55 -154 105 -160 111 -6 6 -33 25 -60 43
-53 34 -113 43 -138 20 -7 -7 -29 -25 -49 -40 -35 -26 -36 -29 -28 -70 4 -24
26 -83 49 -133 98 -211 114 -245 161 -344 28 -56 58 -124 69 -150 10 -25 38
-89 63 -141 25 -52 48 -105 52 -118 10 -33 48 -55 84 -47 25 5 91 64 91 80 0
11 -51 136 -78 190 -16 33 -46 96 -67 140 -20 44 -50 108 -67 143 -30 66 -34
115 -8 120 8 1 54 -23 102 -55 371 -248 459 -303 485 -303 33 0 61 16 106 58
44 43 46 66 13 131 -14 25 -42 87 -64 136 -35 79 -70 154 -157 340 -12 28 -48
102 -78 165 -31 63 -63 133 -72 155 -17 43 -52 85 -69 84 -6 0 -24 -6 -39 -13z"/>
<path d="M6290 9809 c-282 -26 -492 -52 -530 -64 -25 -9 -82 -22 -125 -30 -71
-12 -130 -27 -378 -95 -38 -10 -83 -25 -100 -33 -18 -9 -45 -19 -62 -23 -128
-30 -593 -254 -795 -382 -86 -55 -150 -99 -209 -143 -26 -20 -63 -45 -82 -54
-19 -10 -98 -72 -177 -138 -239 -199 -439 -412 -639 -679 -87 -116 -133 -179
-133 -184 0 -3 -13 -24 -28 -47 -16 -23 -40 -60 -54 -82 -31 -48 -178 -313
-178 -320 0 -2 -18 -44 -41 -92 -64 -138 -104 -236 -121 -293 -5 -19 -30 -96
-54 -170 -25 -74 -49 -155 -54 -180 -6 -25 -19 -79 -30 -120 -10 -41 -26 -118
-34 -170 -9 -52 -20 -117 -25 -145 -14 -70 -30 -281 -37 -475 -7 -184 17 -582
41 -687 8 -34 19 -92 25 -130 26 -175 132 -551 191 -679 11 -22 19 -44 19 -48
0 -10 52 -132 91 -212 16 -34 29 -64 29 -66 0 -3 19 -38 41 -79 23 -41 51 -92
63 -114 57 -103 79 -139 146 -240 49 -74 128 -183 140 -195 3 -3 23 -30 45
-60 125 -177 463 -520 659 -671 125 -95 381 -270 491 -334 28 -16 64 -38 80
-47 17 -10 48 -27 70 -39 22 -11 47 -24 55 -29 8 -5 51 -25 95 -45 44 -20 103
-47 130 -60 107 -50 268 -111 430 -160 66 -21 145 -45 175 -55 30 -10 82 -21
115 -25 33 -4 77 -14 98 -21 21 -7 87 -20 147 -29 61 -8 129 -19 153 -25 200
-44 998 -45 1167 0 19 5 75 14 124 20 93 11 386 73 406 85 6 4 43 15 83 25 92
23 161 47 407 140 116 44 353 156 430 203 19 12 48 29 63 37 89 48 285 173
367 234 52 39 100 73 105 75 6 2 19 12 30 22 11 11 40 35 65 54 145 114 373
338 520 511 85 100 244 311 295 393 6 8 34 53 63 99 29 46 56 91 59 100 4 10
14 28 23 42 71 104 251 507 300 672 10 35 34 115 53 179 19 63 40 147 46 185
7 38 18 89 26 114 7 25 18 81 24 125 6 44 18 123 27 175 21 129 30 599 15 785
-11 127 -56 440 -67 456 -2 4 -11 45 -19 91 -15 81 -24 114 -85 311 -16 53
-30 105 -30 115 0 9 -7 31 -16 47 -9 17 -28 59 -41 95 -14 36 -33 85 -42 110
-17 45 -160 335 -197 398 -31 54 -72 119 -163 257 -104 156 -70 111 -278 369
-135 167 -466 489 -582 565 -20 13 -38 27 -41 31 -9 12 -145 105 -300 206
-135 87 -458 256 -554 290 -22 8 -44 18 -50 22 -6 5 -27 15 -46 22 -19 7 -48
19 -65 26 -97 42 -320 111 -555 173 -287 75 -943 135 -1210 110z m694 -234
c226 -25 411 -58 534 -96 34 -10 71 -19 81 -19 23 0 222 -65 336 -110 44 -17
103 -39 130 -49 28 -10 64 -26 80 -34 50 -27 183 -87 191 -87 4 0 15 -6 23
-14 9 -7 53 -33 99 -56 45 -24 87 -49 93 -56 6 -8 17 -14 24 -14 6 0 31 -13
53 -30 23 -16 46 -30 51 -30 5 0 14 -7 22 -16 7 -8 31 -25 53 -36 83 -42 354
-257 490 -387 62 -61 259 -273 324 -351 99 -118 241 -317 328 -460 122 -202
286 -551 319 -680 3 -14 17 -54 30 -90 13 -36 40 -130 60 -210 20 -80 41 -158
45 -175 5 -16 24 -120 42 -230 32 -198 32 -203 33 -550 0 -290 -3 -364 -17
-430 -9 -44 -22 -120 -28 -170 -6 -49 -17 -112 -24 -140 -8 -27 -17 -68 -20
-90 -4 -22 -17 -76 -31 -120 -13 -44 -38 -127 -55 -185 -18 -58 -40 -125 -50
-150 -11 -25 -22 -56 -25 -70 -9 -33 -115 -268 -156 -345 -96 -180 -127 -233
-205 -349 -75 -114 -87 -130 -105 -150 -11 -11 -19 -23 -19 -28 0 -9 -155
-197 -178 -215 -8 -7 -23 -24 -32 -38 -18 -27 -170 -184 -282 -290 -135 -129
-367 -302 -603 -448 -49 -31 -315 -177 -322 -177 -3 0 -32 -13 -66 -29 -116
-54 -162 -73 -217 -93 -30 -11 -91 -34 -135 -50 -44 -16 -110 -38 -147 -48
-37 -11 -75 -23 -85 -28 -10 -5 -38 -13 -63 -17 -25 -4 -86 -18 -135 -31 -50
-13 -138 -31 -195 -39 -58 -8 -145 -21 -195 -29 -208 -35 -934 -29 -1090 8
-33 8 -98 20 -145 26 -47 6 -116 19 -155 30 -38 10 -92 21 -118 25 -65 9 -378
112 -507 167 -58 25 -116 49 -130 53 -34 10 -312 154 -375 193 -27 17 -70 43
-95 57 -48 28 -104 64 -166 107 -22 16 -53 38 -71 50 -248 176 -494 406 -704
659 -86 103 -124 152 -227 298 -32 46 -114 176 -142 228 -9 16 -31 55 -51 88
-36 62 -109 209 -109 220 0 3 -13 34 -29 68 -59 129 -159 417 -192 557 -9 41
-22 94 -28 117 -6 23 -18 86 -26 140 -9 54 -23 136 -31 183 -20 111 -30 677
-16 845 6 66 20 167 31 225 53 283 51 275 103 460 16 58 40 133 54 168 13 34
24 70 24 80 0 9 11 40 25 67 13 28 25 54 25 58 1 30 152 342 221 457 22 36 42
71 46 79 7 15 104 161 168 251 34 48 110 146 125 160 3 3 33 39 67 80 120 147
369 390 508 496 28 20 77 59 110 84 52 40 128 91 275 185 210 134 546 300 710
350 25 8 104 34 175 58 149 50 230 72 365 98 52 10 124 24 160 33 36 8 101 17
145 21 44 3 130 13 190 21 162 21 191 22 405 18 116 -2 288 -14 424 -29z"/>
<path d="M4363 8073 c-12 -2 -24 -12 -28 -21 -18 -47 -55 -188 -70 -272 -9
-52 -21 -100 -26 -106 -5 -7 -15 -54 -20 -105 -6 -52 -17 -103 -24 -115 -15
-23 -49 -191 -49 -240 0 -24 10 -41 38 -68 38 -35 38 -36 31 -93 -4 -32 -13
-73 -21 -91 -7 -19 -21 -73 -29 -120 -9 -48 -23 -101 -31 -119 -8 -17 -14 -44
-14 -60 -1 -38 -24 -143 -37 -168 -6 -11 -17 -59 -23 -105 -7 -47 -19 -97 -26
-111 -7 -14 -18 -57 -24 -95 -6 -38 -20 -89 -30 -114 -10 -25 -24 -81 -30
-125 -7 -44 -18 -96 -25 -115 -7 -19 -21 -78 -30 -130 -9 -52 -20 -99 -24
-105 -5 -5 -14 -44 -21 -85 -6 -41 -20 -102 -30 -135 -10 -33 -24 -91 -30
-129 -6 -38 -17 -84 -25 -103 -8 -18 -19 -68 -24 -110 -10 -70 -15 -81 -46
-111 -19 -18 -49 -35 -65 -38 -31 -7 -41 -27 -55 -107 -3 -21 -14 -63 -24 -95
-10 -31 -22 -84 -26 -117 -4 -33 -11 -68 -16 -77 -5 -9 -18 -69 -29 -133 -10
-65 -24 -122 -29 -129 -13 -15 -31 -127 -31 -189 0 -61 12 -66 151 -64 138 1
149 -3 149 -56 0 -23 -7 -61 -15 -85 -11 -29 -13 -53 -7 -75 l8 -32 647 -3
c742 -3 675 -12 696 99 6 35 19 90 27 122 8 32 23 103 34 157 10 55 21 104 24
109 3 4 17 64 31 132 32 161 69 329 88 404 29 115 49 200 63 270 8 39 25 111
38 160 13 50 34 135 47 189 13 55 32 110 42 123 l18 23 1397 0 c814 0 1457 4
1542 10 205 14 455 47 520 69 30 10 71 22 90 26 57 12 252 111 295 151 22 20
58 49 81 64 49 34 220 201 255 250 52 71 99 140 99 145 0 2 18 43 40 89 93
196 129 357 130 581 0 230 -48 368 -187 534 -36 44 -72 99 -83 130 -27 69 -67
127 -143 205 -76 77 -165 143 -217 161 -21 7 -49 20 -62 29 -13 8 -43 18 -68
22 -24 4 -58 15 -75 25 -17 10 -83 24 -155 33 -69 10 -154 22 -190 29 -48 8
-631 12 -2205 13 -1177 1 -2150 0 -2162 -3z m4151 -63 c33 -5 140 -14 236 -20
116 -7 195 -17 235 -30 33 -10 83 -24 110 -30 60 -13 159 -59 229 -105 69 -45
156 -128 156 -148 0 -9 5 -19 10 -22 18 -11 11 -25 -12 -25 -13 1 -72 14 -133
31 -150 40 -349 67 -605 79 -140 7 -890 10 -2152 8 l-1937 -3 -28 -21 c-24
-18 -32 -38 -55 -135 -15 -63 -36 -152 -48 -199 -11 -47 -27 -119 -34 -160 -8
-41 -24 -113 -35 -160 -30 -123 -28 -146 14 -184 23 -21 35 -41 35 -59 0 -33
-19 -126 -76 -362 -25 -104 -52 -219 -60 -255 -9 -36 -23 -96 -31 -135 -8 -38
-23 -101 -33 -140 -10 -38 -26 -109 -34 -157 -9 -47 -22 -104 -30 -125 -7 -21
-17 -63 -21 -93 -3 -30 -15 -84 -25 -120 -10 -36 -30 -117 -44 -180 -27 -121
-54 -241 -87 -375 -10 -44 -28 -120 -39 -169 -11 -49 -28 -98 -37 -109 -10
-11 -41 -31 -70 -44 -51 -24 -52 -26 -62 -81 -6 -32 -18 -88 -27 -127 -10 -38
-25 -109 -34 -157 -11 -56 -26 -101 -44 -128 l-27 -41 -72 1 c-112 2 -136 9
-143 36 -7 26 29 232 51 300 8 22 17 70 21 105 3 35 13 80 21 99 8 19 21 73
29 120 19 104 30 123 85 139 53 16 66 33 74 91 4 25 15 72 25 105 11 33 24 91
30 128 11 72 48 226 80 337 10 36 22 88 25 115 4 28 17 84 30 125 12 41 26
100 30 130 4 30 13 71 20 90 7 19 18 64 25 100 6 36 18 86 26 111 8 25 21 82
29 125 18 103 52 252 76 334 10 36 23 96 29 134 6 38 17 83 24 101 8 17 19 65
26 106 7 41 19 91 26 113 15 41 18 114 6 131 -4 6 -22 21 -39 34 -37 25 -42
53 -19 104 8 18 19 64 25 102 6 39 20 104 31 145 11 41 26 107 34 145 22 109
54 236 60 242 3 4 18 14 33 24 27 17 134 18 2032 18 1247 1 2027 -3 2065 -9z
m-236 -1056 c30 -8 52 -52 44 -89 -8 -43 -61 -127 -103 -163 -52 -45 -159 -83
-259 -92 -47 -5 -562 -9 -1144 -9 l-1060 -1 -23 22 c-30 28 -29 57 2 188 21
85 30 109 53 127 l27 23 1220 0 c671 0 1230 -3 1243 -6z m230 -38 c15 -8 37
-25 49 -38 26 -28 63 -135 63 -184 0 -91 -72 -259 -136 -316 -35 -30 -137 -69
-224 -83 -73 -13 -270 -15 -1337 -13 -1238 3 -1253 3 -1272 23 -17 17 -18 27
-11 71 15 89 29 130 56 155 l26 24 1141 2 c762 2 1161 6 1199 13 72 14 162 54
207 93 48 41 95 114 110 169 16 55 51 98 81 98 12 0 33 -6 48 -14z"/>
<path d="M6155 5139 c-212 -26 -415 -180 -512 -386 -24 -52 -55 -134 -69 -184
-23 -78 -26 -104 -22 -197 4 -95 9 -119 45 -214 49 -131 90 -200 167 -285 145
-158 295 -225 506 -224 140 0 234 27 352 102 62 40 91 33 117 -27 l20 -44 146
0 145 0 20 33 c20 31 20 45 15 687 -3 360 -5 658 -5 661 0 3 -9 15 -20 27 -19
21 -30 22 -153 22 -73 0 -137 -4 -143 -8 -6 -4 -19 -23 -29 -42 -31 -61 -61
-65 -124 -20 -59 43 -175 87 -265 99 -86 12 -91 12 -191 0z m358 -352 c84 -38
167 -126 198 -208 21 -55 24 -81 24 -189 0 -120 -1 -128 -32 -192 -62 -132
-166 -209 -308 -229 -173 -24 -320 46 -408 193 -45 75 -61 155 -55 271 6 113
34 182 104 260 56 63 72 74 143 104 49 21 69 23 166 21 95 -3 118 -7 168 -31z"/>
<path d="M7978 5139 c-61 -9 -131 -45 -171 -86 -44 -45 -69 -43 -104 10 l-29
42 -113 3 c-106 2 -116 1 -137 -19 l-24 -22 0 -664 c0 -718 0 -717 52 -725 13
-2 80 -2 151 0 l127 3 15 29 c13 24 15 91 15 404 0 418 11 538 56 608 13 21
24 41 24 46 0 5 11 19 25 32 20 19 40 25 103 30 91 7 115 18 132 62 6 18 23
60 36 93 13 33 24 77 24 97 0 32 -4 38 -32 46 -51 16 -99 19 -150 11z"/>
<path d="M8687 5139 c-135 -18 -273 -116 -334 -238 -25 -51 -28 -66 -28 -161
1 -119 8 -137 92 -245 66 -86 121 -125 300 -216 180 -91 243 -142 243 -196 0
-83 -48 -118 -165 -118 -69 0 -89 4 -145 31 -36 17 -82 45 -104 63 -31 24 -45
30 -70 25 -17 -3 -34 -8 -37 -12 -3 -4 -40 -44 -81 -89 -63 -67 -75 -86 -71
-107 8 -38 113 -131 193 -170 79 -39 93 -43 220 -56 106 -10 276 6 322 31 77
42 97 54 135 86 39 31 113 128 113 149 1 5 9 27 20 49 14 28 19 62 20 116 0
127 -67 261 -164 328 -22 16 -52 40 -66 53 -14 14 -83 53 -155 87 -207 100
-214 104 -233 124 -11 12 -17 35 -17 63 0 54 26 83 83 91 73 10 126 -5 206
-57 54 -36 81 -47 98 -43 13 3 60 42 106 87 92 90 99 111 54 162 -32 37 -119
99 -153 109 -13 4 -35 14 -48 22 -26 16 -176 44 -231 42 -19 -1 -65 -5 -103
-10z"/>
<path d="M10170 9459 c-38 -16 -88 -68 -123 -129 -30 -52 -32 -61 -32 -155 0
-87 4 -108 28 -165 34 -79 64 -141 97 -200 41 -73 70 -153 70 -190 0 -62 -51
-119 -107 -120 -51 0 -82 17 -138 75 -60 63 -91 141 -81 203 21 137 20 149
-10 178 -34 32 -84 64 -100 64 -6 0 -24 -28 -39 -62 -22 -50 -29 -83 -32 -158
-5 -84 -3 -102 18 -150 40 -95 85 -163 157 -235 108 -110 135 -125 236 -132
78 -5 103 4 169 63 62 56 126 192 127 270 0 61 -61 208 -186 444 -10 19 -20
62 -22 95 -3 50 0 65 18 88 39 49 113 27 186 -54 40 -44 67 -124 59 -172 -15
-85 -11 -95 48 -155 l56 -56 28 20 c15 12 33 39 40 60 16 54 16 182 -1 236
-31 103 -182 279 -273 320 -51 22 -158 32 -193 17z"/>
<path d="M2620 9411 c-77 -84 -90 -103 -90 -133 0 -30 41 -168 80 -268 10 -25
20 -58 24 -75 6 -27 54 -182 116 -375 11 -36 28 -90 36 -120 37 -128 68 -226
77 -237 27 -37 114 22 137 94 12 34 -7 129 -36 185 -8 15 -14 44 -14 64 0 31
10 48 68 113 37 41 98 106 135 144 58 58 73 68 94 62 25 -6 96 -49 122 -73 8
-8 30 -12 54 -10 35 3 47 11 91 61 40 47 48 62 40 75 -12 20 -144 109 -229
154 -33 17 -62 34 -65 38 -3 4 -23 17 -45 29 -22 12 -62 36 -90 53 -27 17 -95
57 -150 88 -55 32 -116 67 -135 79 -19 11 -52 30 -72 41 -20 11 -39 24 -43 30
-13 21 -79 9 -105 -19z m281 -325 c111 -72 149 -104 149 -127 0 -41 -164 -188
-186 -166 -13 13 -104 302 -104 331 0 32 55 18 141 -38z"/>
<path d="M10824 8421 c-180 -65 -325 -198 -407 -372 -35 -74 -46 -129 -47
-215 0 -131 26 -213 112 -350 68 -107 198 -174 311 -160 32 4 67 16 82 28 29
22 28 50 -3 140 -18 54 -34 63 -92 53 -55 -9 -131 18 -168 59 -78 89 -100 223
-53 318 50 98 152 198 264 257 75 39 125 47 185 27 58 -20 89 -50 131 -131 39
-76 43 -171 10 -236 -17 -34 -18 -46 -9 -74 13 -38 82 -115 104 -115 24 0 66
64 82 122 16 63 18 186 3 260 -25 123 -117 268 -209 331 -113 76 -199 93 -296
58z"/>
<path d="M1739 8138 c-12 -24 -28 -50 -36 -59 -31 -36 -4 -73 127 -174 35 -28
71 -56 80 -62 8 -7 53 -42 100 -78 78 -60 142 -110 301 -235 31 -25 73 -58 93
-74 31 -25 41 -27 68 -20 25 7 38 22 63 69 17 33 52 98 77 145 25 47 64 121
88 165 23 44 57 105 75 136 46 80 51 108 23 149 -22 33 -67 54 -92 44 -7 -3
-20 -19 -29 -37 -9 -18 -21 -39 -25 -47 -5 -8 -15 -26 -22 -40 -89 -165 -153
-277 -167 -292 -19 -21 -46 -16 -83 16 -14 12 -36 29 -50 38 -14 8 -57 42 -96
74 -40 33 -104 84 -143 114 -40 30 -86 67 -104 81 -185 149 -212 158 -248 87z"/>
<path d="M11535 7179 c-38 -11 -104 -28 -146 -39 -41 -11 -107 -33 -147 -49
-64 -27 -239 -79 -397 -118 -39 -9 -68 -24 -84 -41 -21 -23 -23 -32 -17 -83 8
-82 23 -109 58 -109 31 0 143 28 243 60 74 25 98 25 117 3 21 -24 54 -159 70
-284 10 -86 10 -104 -3 -127 -15 -28 -14 -27 -224 -86 -140 -39 -149 -48 -139
-136 5 -40 13 -63 33 -83 30 -33 34 -33 181 12 52 16 156 46 230 66 415 112
476 131 486 147 11 18 8 112 -6 152 l-12 39 -67 -6 c-36 -3 -89 -14 -117 -25
-61 -24 -134 -36 -164 -27 -28 9 -37 36 -55 157 -9 55 -18 104 -20 108 -12 19
-22 136 -13 153 12 24 72 45 254 88 23 6 51 20 63 33 20 22 21 27 10 99 -11
71 -33 118 -55 116 -5 0 -40 -9 -79 -20z"/>
<path d="M1465 6893 c-63 -14 -103 -47 -163 -133 -25 -36 -37 -71 -57 -171
-31 -157 -31 -215 -2 -318 39 -132 89 -186 197 -210 94 -21 197 46 262 172 33
63 88 192 88 205 0 5 14 39 31 76 56 119 121 147 185 79 44 -46 47 -62 42
-182 -3 -88 -7 -104 -33 -147 -23 -37 -44 -56 -85 -77 -30 -15 -63 -35 -72
-45 -26 -26 -34 -119 -14 -165 14 -34 18 -37 43 -32 73 16 129 39 164 67 37
30 109 137 109 162 0 7 10 39 22 72 18 51 21 81 22 224 1 164 1 166 -28 223
-37 73 -87 119 -160 146 -77 29 -121 27 -192 -9 -49 -24 -66 -40 -99 -92 -52
-81 -85 -156 -145 -325 -28 -78 -75 -133 -115 -133 -35 0 -53 16 -80 69 -42
82 14 264 95 310 51 28 80 83 80 150 0 42 -4 53 -26 70 -27 21 -33 22 -69 14z"/>
<path d="M1971 5644 c-99 -104 -120 -129 -179 -222 -24 -38 -30 -42 -57 -37
-32 6 -43 17 -51 57 -7 31 -61 91 -103 112 -35 19 -138 21 -196 5 -64 -18
-111 -62 -135 -127 -43 -113 -45 -223 -10 -457 6 -38 15 -122 20 -186 11 -136
20 -164 53 -173 14 -3 74 3 133 15 60 11 163 29 229 39 66 11 154 26 195 34
41 8 98 17 125 21 28 3 70 11 95 17 25 5 55 10 68 10 41 1 56 39 49 124 -3 41
-10 81 -16 88 -11 14 -120 5 -173 -13 -16 -6 -65 -13 -111 -17 -100 -8 -109
-1 -115 86 -7 103 17 145 203 344 123 132 139 161 131 230 -9 68 -23 118 -39
140 -12 16 -22 9 -116 -90z m-423 -310 c53 -37 92 -184 92 -345 0 -61 -4 -79
-18 -92 -20 -18 -160 -41 -186 -31 -30 12 -58 150 -60 294 -1 97 1 107 24 139
14 18 34 37 45 41 33 14 79 11 103 -6z"/>
<path d="M11168 5716 c-154 -33 -284 -195 -314 -391 -28 -183 -13 -342 42
-440 35 -63 128 -175 146 -175 5 0 22 -9 37 -20 15 -10 63 -31 107 -46 71 -24
89 -26 184 -22 194 9 310 84 387 251 32 69 43 115 53 229 19 224 -19 357 -136
476 -125 126 -318 178 -506 138z m261 -239 c69 -18 93 -30 132 -65 26 -23 57
-61 68 -85 41 -86 36 -249 -11 -343 -58 -116 -176 -163 -330 -131 -145 30
-252 116 -279 222 -16 65 -7 221 16 265 35 67 69 102 124 127 104 46 137 47
280 10z"/>
<path d="M2200 4542 c-19 -22 -46 -56 -60 -76 -29 -43 -108 -150 -200 -271
-36 -47 -79 -106 -96 -130 -17 -25 -42 -58 -55 -73 -42 -48 -181 -237 -199
-272 -8 -14 -13 -38 -12 -54 2 -24 33 -103 61 -156 7 -12 30 -15 117 -15 121
0 397 21 459 35 22 5 112 14 200 20 88 6 170 13 183 16 47 10 49 77 5 166 -21
43 -42 49 -135 39 -92 -10 -131 1 -143 41 -4 13 -18 46 -30 73 -13 28 -33 76
-44 108 -12 31 -30 82 -41 112 -23 62 -19 94 17 141 12 16 37 50 57 77 20 26
36 58 36 72 0 35 -36 125 -63 159 l-23 28 -34 -40z m-113 -564 c12 -20 53
-119 64 -157 8 -24 7 -41 -1 -62 -7 -16 -13 -29 -14 -30 0 0 -62 -7 -136 -14
-174 -17 -188 -9 -127 76 117 166 187 228 214 187z"/>
<path d="M10808 4375 c-215 -79 -373 -426 -314 -690 23 -103 76 -199 147 -265
139 -131 278 -188 429 -177 113 7 184 49 259 151 44 59 98 169 108 218 3 18
13 43 21 56 11 17 15 53 15 135 1 98 -3 122 -27 192 -16 44 -31 82 -35 85 -4
3 -18 23 -31 45 -51 87 -169 180 -297 235 -62 26 -84 30 -155 29 -46 0 -100
-7 -120 -14z m166 -225 c105 -17 259 -129 302 -219 36 -74 44 -137 27 -199 -8
-31 -18 -68 -21 -82 -7 -38 -77 -132 -117 -159 -38 -25 -114 -44 -142 -35 -75
25 -154 61 -188 84 -67 47 -131 122 -160 187 -25 56 -27 71 -23 140 4 58 13
95 35 143 35 74 67 108 126 132 49 20 81 21 161 8z"/>
<path d="M10164 3348 c-16 -18 -54 -64 -85 -103 -31 -38 -79 -97 -106 -130
-26 -33 -60 -76 -73 -95 -14 -19 -30 -42 -37 -50 -6 -8 -33 -41 -58 -72 -52
-64 -53 -77 -6 -135 44 -55 68 -47 147 52 38 47 86 105 108 128 21 23 50 59
64 80 14 21 38 45 53 52 34 18 24 27 218 -195 84 -96 178 -204 209 -239 31
-35 70 -81 87 -103 17 -21 45 -47 61 -57 l30 -18 42 49 c23 28 45 62 49 76 8
32 -15 74 -74 138 -24 27 -48 54 -51 61 -7 11 -77 92 -182 208 -25 27 -65 75
-90 105 -47 58 -164 191 -216 247 -18 18 -38 33 -46 33 -8 0 -28 -15 -44 -32z"/>
<path d="M2359 3092 c-9 -4 -41 -24 -72 -46 -94 -65 -168 -203 -168 -311 0
-31 4 -62 9 -68 5 -7 14 -27 20 -46 14 -41 108 -191 179 -286 29 -38 67 -90
85 -115 39 -53 68 -79 87 -80 14 0 154 140 413 412 69 73 158 166 197 206 78
81 87 106 58 164 -16 33 -75 88 -93 88 -4 0 -60 -54 -124 -120 -65 -66 -124
-120 -133 -120 -8 0 -30 20 -48 46 -125 168 -214 256 -277 274 -41 11 -109 12
-133 2z m201 -289 c55 -58 120 -154 120 -178 0 -14 -113 -144 -152 -174 -21
-17 -32 -19 -51 -12 -52 20 -167 211 -167 277 0 39 11 65 48 109 32 39 48 45
102 41 39 -4 51 -11 100 -63z"/>
</g>
</svg>
